<mxfile host="app.diagrams.net" modified="2023-09-04T02:56:02.472Z" agent="Mozilla/5.0 (Windows NT 10.0; Win64; x64) AppleWebKit/537.36 (KHTML, like Gecko) Chrome/115.0.0.0 Safari/537.36 OPR/101.0.0.0" version="21.7.2" etag="gY-m8AJMKUqJrVKFN9Ae" type="github">
  <diagram name="PÃ¡gina-1" id="LJFYzVz0YNHofM4HjQAo">
    <mxGraphModel>
      <root>
        <mxCell id="0" />
        <mxCell id="1" parent="0" />
      </root>
    </mxGraphModel>
  </diagram>
</mxfile>
